<svg width="512" height="512" viewBox="0 0 512 512" fill="none" xmlns="http://www.w3.org/2000/svg" role="img" aria-labelledby="title desc">
  <title id="title">Zhumeng Workstation logo</title>
  <desc id="desc">A premium Z-shaped route mark with a guiding star, representing unified AI tools and model orchestration.</desc>
  <defs>
    <linearGradient id="bg" x1="80" y1="48" x2="448" y2="464" gradientUnits="userSpaceOnUse">
      <stop stop-color="#17213F"/>
      <stop offset="0.48" stop-color="#080D1D"/>
      <stop offset="1" stop-color="#060710"/>
    </linearGradient>
    <linearGradient id="gold" x1="133" y1="125" x2="382" y2="395" gradientUnits="userSpaceOnUse">
      <stop stop-color="#FFF0BE"/>
      <stop offset="0.46" stop-color="#D9B779"/>
      <stop offset="1" stop-color="#9E7B3F"/>
    </linearGradient>
    <linearGradient id="blue" x1="103" y1="116" x2="417" y2="392" gradientUnits="userSpaceOnUse">
      <stop stop-color="#86C7FF"/>
      <stop offset="0.5" stop-color="#7A5CFF"/>
      <stop offset="1" stop-color="#D9B779"/>
    </linearGradient>
    <filter id="softShadow" x="20" y="20" width="472" height="472" filterUnits="userSpaceOnUse" color-interpolation-filters="sRGB">
      <feDropShadow dx="0" dy="22" stdDeviation="24" flood-color="#000000" flood-opacity="0.45"/>
    </filter>
    <filter id="glow" x="72" y="72" width="368" height="368" filterUnits="userSpaceOnUse" color-interpolation-filters="sRGB">
      <feGaussianBlur stdDeviation="7" result="blur"/>
      <feMerge>
        <feMergeNode in="blur"/>
        <feMergeNode in="SourceGraphic"/>
      </feMerge>
    </filter>
  </defs>
  <rect x="48" y="48" width="416" height="416" rx="116" fill="url(#bg)" filter="url(#softShadow)"/>
  <rect x="49" y="49" width="414" height="414" rx="115" stroke="white" stroke-opacity="0.11" stroke-width="2"/>
  <path d="M137 153H360C384 153 395 182 378 199L149 359C132 376 144 405 168 405H382" stroke="url(#gold)" stroke-width="42" stroke-linecap="round" stroke-linejoin="round" filter="url(#glow)"/>
  <path d="M145 151H360C384 151 395 180 378 197L151 357" stroke="white" stroke-opacity="0.33" stroke-width="10" stroke-linecap="round"/>
  <circle cx="137" cy="153" r="13" fill="#EBD29A"/>
  <circle cx="382" cy="405" r="13" fill="#EBD29A"/>
  <path d="M256 96L268 126L299 138L268 150L256 181L244 150L213 138L244 126L256 96Z" fill="url(#blue)"/>
  <path d="M111 285C157 245 197 230 246 232C300 235 338 213 391 166" stroke="#8FB7FF" stroke-opacity="0.22" stroke-width="10" stroke-linecap="round"/>
</svg>
